<svg xmlns="http://www.w3.org/2000/svg" xmlns:xlink="http://www.w3.org/1999/xlink" width="500" zoomAndPan="magnify" viewBox="0 0 375 374.999991" height="500" preserveAspectRatio="xMidYMid meet" version="1.0"><defs><clipPath id="6f743c9107"><path d="M 187.5 0 C 83.945312 0 0 83.945312 0 187.5 C 0 291.054688 83.945312 375 187.5 375 C 291.054688 375 375 291.054688 375 187.5 C 375 83.945312 291.054688 0 187.5 0 Z M 187.5 0 " clip-rule="nonzero"/></clipPath><clipPath id="a7debe7904"><path d="M 61.546875 32 L 313.546875 32 L 313.546875 301.246094 L 61.546875 301.246094 Z M 61.546875 32 " clip-rule="nonzero"/></clipPath></defs><g clip-path="url(#6f743c9107)"><path stroke-linecap="butt" transform="matrix(0.75, 0, 0, 0.75, 0.0000045, 0)" fill="none" stroke-linejoin="miter" d="M 249.999994 0 C 111.927078 0 -0.000006 111.927084 -0.000006 250 C -0.000006 388.072917 111.927078 500.000001 249.999994 500.000001 C 388.072911 500.000001 499.999995 388.072917 499.999995 250 C 499.999995 111.927084 388.072911 0 249.999994 0 Z M 249.999994 0 " stroke="#c5a253" stroke-width="20" stroke-opacity="1" stroke-miterlimit="4"/></g><g clip-path="url(#a7debe7904)"><path fill="#c5a253" d="M 198.285156 200.421875 C 195.390625 197.527344 191.394531 195.738281 186.980469 195.738281 C 182.566406 195.738281 178.566406 197.527344 175.675781 200.421875 C 172.78125 203.3125 170.992188 207.3125 170.992188 211.726562 C 170.992188 216.140625 172.78125 220.140625 175.675781 223.03125 C 178.566406 225.925781 182.5625 227.714844 186.980469 227.714844 C 191.394531 227.714844 195.390625 225.925781 198.285156 223.03125 C 201.179688 220.140625 202.96875 216.140625 202.96875 211.726562 C 202.96875 207.308594 201.179688 203.3125 198.285156 200.421875 Z M 186.980469 189.175781 C 193.207031 189.175781 198.84375 191.699219 202.925781 195.78125 C 207.003906 199.863281 209.53125 205.5 209.53125 211.726562 C 209.53125 217.953125 207.003906 223.589844 202.925781 227.671875 C 198.84375 231.753906 193.207031 234.277344 186.980469 234.277344 C 180.753906 234.277344 175.117188 231.753906 171.035156 227.671875 C 166.953125 223.589844 164.429688 217.953125 164.429688 211.726562 C 164.429688 205.5 166.953125 199.863281 171.035156 195.78125 C 175.113281 191.699219 180.753906 189.175781 186.980469 189.175781 Z M 268.203125 211.304688 C 265.308594 208.410156 261.3125 206.621094 256.898438 206.621094 C 252.480469 206.621094 248.484375 208.410156 245.589844 211.304688 C 242.699219 214.195312 240.910156 218.195312 240.910156 222.609375 C 240.910156 227.023438 242.699219 231.023438 245.589844 233.914062 C 248.484375 236.808594 252.480469 238.597656 256.898438 238.597656 C 261.3125 238.597656 265.308594 236.808594 268.203125 233.914062 C 271.09375 231.023438 272.886719 227.023438 272.886719 222.609375 C 272.886719 218.195312 271.09375 214.195312 268.203125 211.304688 Z M 256.898438 200.058594 C 263.125 200.058594 268.761719 202.585938 272.84375 206.664062 C 276.921875 210.746094 279.449219 216.382812 279.449219 222.609375 C 279.449219 228.835938 276.921875 234.476562 272.84375 238.554688 C 268.761719 242.636719 263.125 245.160156 256.898438 245.160156 C 250.671875 245.160156 245.035156 242.636719 240.953125 238.554688 C 236.871094 234.476562 234.347656 228.835938 234.347656 222.609375 C 234.347656 216.382812 236.871094 210.746094 240.953125 206.664062 C 245.03125 202.585938 250.671875 200.058594 256.898438 200.058594 Z M 259.835938 258.640625 L 253.960938 258.640625 C 242.757812 258.640625 232.519531 262.980469 224.851562 270.066406 C 219.601562 274.914062 215.554688 281.046875 213.222656 287.949219 C 213.191406 288.054688 213.160156 288.15625 213.121094 288.253906 C 212.4375 290.328125 211.90625 292.46875 211.546875 294.667969 L 302.25 294.667969 C 300.664062 285.023438 295.84375 276.4375 288.945312 270.066406 C 281.273438 262.984375 271.039062 258.640625 259.835938 258.640625 Z M 128.832031 211.304688 C 125.941406 208.410156 121.945312 206.621094 117.527344 206.621094 C 113.113281 206.621094 109.117188 208.410156 106.222656 211.304688 C 103.328125 214.195312 101.539062 218.195312 101.539062 222.609375 C 101.539062 227.027344 103.328125 231.023438 106.222656 233.914062 C 109.117188 236.808594 113.113281 238.597656 117.527344 238.597656 C 121.945312 238.597656 125.941406 236.808594 128.832031 233.914062 C 131.726562 231.023438 133.515625 227.023438 133.515625 222.609375 C 133.515625 218.195312 131.726562 214.195312 128.832031 211.304688 Z M 117.527344 200.058594 C 123.753906 200.058594 129.394531 202.585938 133.472656 206.664062 C 137.554688 210.746094 140.078125 216.382812 140.078125 222.609375 C 140.078125 228.835938 137.554688 234.476562 133.472656 238.554688 C 129.394531 242.636719 123.753906 245.160156 117.527344 245.160156 C 111.300781 245.160156 105.664062 242.636719 101.582031 238.554688 C 97.503906 234.476562 94.976562 228.835938 94.976562 222.609375 C 94.976562 216.382812 97.503906 210.746094 101.582031 206.664062 C 105.664062 202.585938 111.300781 200.058594 117.527344 200.058594 Z M 120.464844 258.640625 L 114.589844 258.640625 C 103.386719 258.640625 93.152344 262.980469 85.480469 270.066406 C 78.582031 276.4375 73.761719 285.023438 72.175781 294.667969 L 162.878906 294.667969 C 162.519531 292.46875 161.988281 290.328125 161.304688 288.253906 C 161.265625 288.15625 161.234375 288.054688 161.203125 287.949219 C 158.871094 281.046875 154.824219 274.914062 149.574219 270.066406 C 141.90625 262.980469 131.667969 258.640625 120.464844 258.640625 Z M 151.324219 262.9375 C 155.007812 258.613281 159.527344 255.023438 164.632812 252.417969 C 170.46875 249.4375 177.066406 247.757812 184.042969 247.757812 L 189.917969 247.757812 C 196.945312 247.757812 203.578125 249.457031 209.433594 252.464844 C 214.582031 255.113281 219.136719 258.765625 222.828125 263.15625 C 222 263.828125 221.195312 264.523438 220.414062 265.246094 C 214.898438 270.34375 210.53125 276.671875 207.765625 283.78125 L 166.660156 283.78125 C 163.894531 276.671875 159.527344 270.34375 154.011719 265.246094 C 153.144531 264.445312 152.246094 263.675781 151.324219 262.9375 Z M 114.589844 252.078125 C 101.683594 252.078125 89.886719 257.082031 81.046875 265.246094 C 72.171875 273.445312 66.273438 284.824219 65.222656 297.523438 C 65.203125 297.664062 65.195312 297.804688 65.195312 297.949219 C 65.195312 299.761719 66.664062 301.230469 68.476562 301.230469 L 166.578125 301.230469 L 166.578125 301.226562 C 166.664062 301.226562 166.75 301.222656 166.835938 301.21875 C 168.640625 301.074219 169.988281 299.496094 169.847656 297.691406 C 169.648438 295.1875 169.261719 292.734375 168.699219 290.347656 L 205.726562 290.347656 C 205.179688 292.679688 204.792969 295.078125 204.59375 297.523438 C 204.574219 297.664062 204.566406 297.804688 204.566406 297.949219 C 204.566406 299.761719 206.035156 301.230469 207.847656 301.230469 L 305.949219 301.230469 L 305.949219 301.226562 C 306.035156 301.226562 306.121094 301.222656 306.207031 301.214844 C 308.011719 301.074219 309.359375 299.496094 309.21875 297.691406 C 308.203125 284.925781 302.292969 273.480469 293.378906 265.246094 C 284.539062 257.082031 272.742188 252.078125 259.835938 252.078125 L 253.960938 252.078125 C 244.535156 252.078125 235.699219 254.746094 228.175781 259.367188 C 223.867188 254.121094 218.507812 249.769531 212.429688 246.648438 C 205.65625 243.164062 197.996094 241.195312 189.917969 241.195312 L 184.042969 241.195312 C 176.003906 241.195312 168.394531 243.136719 161.65625 246.574219 C 155.597656 249.667969 150.25 253.976562 145.933594 259.175781 C 138.480469 254.671875 129.761719 252.078125 120.464844 252.078125 Z M 128.804688 186.101562 C 129.023438 187.898438 127.742188 189.53125 125.945312 189.753906 C 124.148438 189.972656 122.511719 188.691406 122.292969 186.894531 C 121.726562 182.296875 121.292969 177.535156 120.996094 172.625 C 120.769531 168.832031 120.625 165.039062 120.574219 161.25 L 68.125 161.144531 C 68.335938 169.703125 69.4375 178.003906 71.339844 185.964844 C 73.527344 195.128906 76.796875 203.917969 81 212.179688 C 81.824219 213.792969 81.179688 215.765625 79.566406 216.589844 C 77.953125 217.410156 75.976562 216.765625 75.15625 215.152344 C 70.75 206.492188 67.308594 197.21875 64.980469 187.476562 C 62.722656 178.015625 61.523438 168.183594 61.523438 158.113281 C 61.523438 123.335938 75.621094 91.851562 98.410156 69.058594 C 121.203125 46.269531 152.6875 32.171875 187.464844 32.171875 C 222.238281 32.171875 253.722656 46.269531 276.515625 69.058594 C 299.304688 91.851562 313.402344 123.335938 313.402344 158.113281 C 313.402344 168.183594 312.203125 178.019531 309.941406 187.480469 C 307.613281 197.222656 304.171875 206.5 299.765625 215.160156 C 298.945312 216.773438 296.96875 217.417969 295.355469 216.597656 C 293.742188 215.773438 293.097656 213.800781 293.921875 212.1875 C 298.128906 203.921875 301.394531 195.136719 303.585938 185.96875 C 305.453125 178.152344 306.546875 170.007812 306.789062 161.613281 L 254.347656 161.511719 C 254.292969 165.214844 254.152344 168.921875 253.929688 172.628906 C 253.632812 177.539062 253.199219 182.300781 252.632812 186.898438 C 252.414062 188.695312 250.777344 189.976562 248.980469 189.757812 C 247.183594 189.539062 245.902344 187.902344 246.121094 186.105469 C 246.6875 181.515625 247.113281 176.890625 247.394531 172.242188 C 247.605469 168.75 247.734375 165.167969 247.785156 161.5 L 190.855469 161.386719 L 190.828125 175.214844 C 190.828125 177.019531 189.363281 178.480469 187.558594 178.480469 C 185.753906 178.480469 184.292969 177.019531 184.292969 175.214844 L 184.320312 161.375 L 127.136719 161.261719 C 127.183594 165.011719 127.316406 168.675781 127.53125 172.242188 C 127.8125 176.886719 128.238281 181.511719 128.800781 186.097656 Z M 245.324219 94.558594 C 257.90625 90.992188 269.097656 86.304688 278.390625 80.757812 C 276.3125 78.316406 274.140625 75.964844 271.878906 73.699219 C 255.996094 57.816406 235.65625 46.394531 212.902344 41.453125 C 221.433594 47.988281 229.058594 57.722656 235.367188 69.878906 C 239.195312 77.257812 242.546875 85.546875 245.324219 94.558594 Z M 190.976562 102.164062 C 208.136719 101.914062 224.378906 99.8125 238.988281 96.230469 C 236.34375 87.699219 233.167969 79.859375 229.546875 72.878906 C 219.425781 53.367188 205.925781 40.742188 191.101562 38.957031 Z M 135.941406 96.230469 C 150.6875 99.84375 167.097656 101.953125 184.4375 102.171875 L 184.5625 38.875 C 169.449219 40.328125 155.671875 53.046875 145.382812 72.878906 C 141.761719 79.859375 138.585938 87.699219 135.941406 96.230469 Z M 96.539062 80.757812 C 105.832031 86.304688 117.023438 90.992188 129.605469 94.558594 C 132.382812 85.546875 135.734375 77.257812 139.5625 69.882812 C 145.871094 57.722656 153.496094 47.988281 162.027344 41.453125 C 139.273438 46.394531 118.933594 57.820312 103.050781 73.699219 C 100.789062 75.964844 98.617188 78.316406 96.539062 80.757812 Z M 127.789062 100.847656 C 114.324219 97.023438 102.335938 91.941406 92.402344 85.898438 C 77.804688 105.085938 68.882812 128.820312 68.140625 154.609375 L 120.578125 154.710938 C 120.847656 135.347656 123.421875 117.070312 127.789062 100.847656 Z M 184.425781 108.734375 C 166.476562 108.507812 149.449219 106.304688 134.121094 102.527344 C 129.898438 118.203125 127.410156 135.914062 127.140625 154.722656 L 184.335938 154.835938 Z M 240.808594 102.527344 C 225.609375 106.273438 208.742188 108.472656 190.960938 108.726562 L 190.871094 154.851562 L 247.792969 154.960938 C 247.542969 136.066406 245.050781 118.269531 240.808594 102.527344 Z M 282.527344 85.898438 C 272.59375 91.941406 260.605469 97.023438 247.140625 100.847656 C 251.527344 117.144531 254.105469 135.515625 254.355469 154.976562 L 306.804688 155.078125 C 306.15625 129.109375 297.214844 105.199219 282.527344 85.898438 Z M 282.527344 85.898438 " fill-opacity="1" fill-rule="evenodd"/></g></svg>