<svg xmlns="http://www.w3.org/2000/svg" xmlns:xlink="http://www.w3.org/1999/xlink" width="500" zoomAndPan="magnify" viewBox="0 0 375 374.999991" height="500" preserveAspectRatio="xMidYMid meet" version="1.0"><defs><clipPath id="a86c3d9e54"><path d="M 187.5 0 C 83.945312 0 0 83.945312 0 187.5 C 0 291.054688 83.945312 375 187.5 375 C 291.054688 375 375 291.054688 375 187.5 C 375 83.945312 291.054688 0 187.5 0 Z M 187.5 0 " clip-rule="nonzero"/></clipPath><clipPath id="afe3665c02"><path d="M 56.066406 56.066406 L 318.566406 56.066406 L 318.566406 318.566406 L 56.066406 318.566406 Z M 56.066406 56.066406 " clip-rule="nonzero"/></clipPath></defs><g clip-path="url(#a86c3d9e54)"><path stroke-linecap="butt" transform="matrix(0.75, 0, 0, 0.75, 0.0000045, 0)" fill="none" stroke-linejoin="miter" d="M 249.999994 0 C 111.927078 0 -0.000006 111.927084 -0.000006 250 C -0.000006 388.072917 111.927078 500.000001 249.999994 500.000001 C 388.072911 500.000001 499.999995 388.072917 499.999995 250 C 499.999995 111.927084 388.072911 0 249.999994 0 Z M 249.999994 0 " stroke="#c5a253" stroke-width="20" stroke-opacity="1" stroke-miterlimit="4"/></g><g clip-path="url(#afe3665c02)"><path fill="#c5a253" d="M 103.648438 223.285156 L 103.648438 107.859375 C 103.648438 105.519531 105.546875 103.621094 107.886719 103.621094 L 186.125 103.621094 L 179.410156 98.378906 C 177.566406 96.9375 177.238281 94.273438 178.679688 92.425781 C 180.121094 90.582031 182.785156 90.253906 184.628906 91.695312 L 201.050781 104.519531 C 202.078125 105.320312 202.679688 106.554688 202.679688 107.859375 C 202.679688 109.164062 202.078125 110.398438 201.050781 111.199219 L 184.628906 124.023438 C 183.855469 124.628906 182.933594 124.921875 182.023438 124.921875 C 180.761719 124.921875 179.515625 124.363281 178.679688 123.292969 C 177.238281 121.449219 177.566406 118.785156 179.410156 117.34375 L 186.125 112.097656 L 112.125 112.097656 L 112.125 223.285156 C 112.125 225.628906 110.226562 227.527344 107.886719 227.527344 C 105.546875 227.527344 103.648438 225.628906 103.648438 223.285156 Z M 267.164062 172.34375 C 264.820312 172.34375 262.925781 174.242188 262.925781 176.582031 L 262.925781 262.898438 L 173.289062 262.898438 L 180.003906 257.652344 C 181.847656 256.214844 182.175781 253.550781 180.734375 251.703125 C 179.292969 249.859375 176.628906 249.53125 174.785156 250.972656 L 158.363281 263.796875 C 157.335938 264.597656 156.734375 265.832031 156.734375 267.136719 C 156.734375 268.441406 157.335938 269.675781 158.363281 270.476562 L 174.785156 283.300781 C 175.558594 283.90625 176.476562 284.199219 177.390625 284.199219 C 178.652344 284.199219 179.898438 283.636719 180.734375 282.570312 C 182.175781 280.722656 181.847656 278.058594 180.003906 276.617188 L 173.289062 271.375 L 267.164062 271.375 C 269.503906 271.375 271.402344 269.476562 271.402344 267.136719 L 271.402344 176.582031 C 271.402344 174.242188 269.503906 172.34375 267.164062 172.34375 Z M 208.402344 303.195312 C 208.519531 310.40625 202.710938 316.898438 195.972656 317.089844 L 132.371094 318.894531 C 132.121094 318.898438 131.875 318.902344 131.628906 318.902344 C 125.003906 318.902344 118.988281 316.378906 114.183594 311.574219 L 86.65625 284.046875 L 83.042969 284.046875 L 83.015625 287.625 C 82.996094 289.925781 82.078125 292.085938 80.429688 293.703125 C 78.800781 295.304688 76.65625 296.183594 74.382812 296.183594 C 74.355469 296.183594 74.332031 296.183594 74.304688 296.183594 L 64.679688 296.101562 C 59.917969 296.0625 56.078125 292.15625 56.121094 287.394531 L 56.550781 237.394531 C 56.589844 232.660156 60.457031 228.835938 65.183594 228.835938 C 65.207031 228.835938 65.234375 228.835938 65.257812 228.835938 L 74.882812 228.917969 C 77.183594 228.9375 79.34375 229.855469 80.964844 231.5 C 82.582031 233.148438 83.464844 235.324219 83.445312 237.625 L 83.421875 240.273438 L 107.484375 240.242188 C 107.515625 240.242188 107.550781 240.242188 107.585938 240.242188 C 114.554688 240.242188 122.4375 241.125 128.207031 247.527344 C 129.5625 249.027344 131.105469 250.855469 132.734375 252.789062 C 137.359375 258.277344 143.113281 265.105469 149.664062 270.644531 C 149.8125 270.769531 149.949219 270.902344 150.074219 271.042969 C 154.757812 276.238281 154.695312 284.042969 149.925781 288.8125 C 149.914062 288.824219 149.898438 288.839844 149.886719 288.851562 C 150.230469 288.871094 150.582031 288.875 150.933594 288.878906 L 185.484375 288.746094 C 185.558594 288.746094 185.632812 288.746094 185.707031 288.746094 C 206.546875 288.746094 208.347656 299.796875 208.402344 303.195312 Z M 74.964844 237.550781 C 74.964844 237.535156 74.964844 237.496094 74.917969 237.445312 C 74.867188 237.394531 74.824219 237.394531 74.808594 237.394531 L 65.183594 237.3125 C 65.109375 237.3125 65.027344 237.390625 65.027344 237.46875 L 64.597656 287.464844 C 64.597656 287.542969 64.675781 287.625 64.753906 287.625 L 74.378906 287.707031 C 74.398438 287.710938 74.433594 287.707031 74.484375 287.65625 C 74.535156 287.609375 74.535156 287.566406 74.535156 287.550781 Z M 199.925781 303.332031 C 199.867188 299.558594 194.421875 297.222656 185.699219 297.222656 C 185.636719 297.222656 185.578125 297.222656 185.515625 297.226562 L 150.964844 297.355469 C 150.929688 297.355469 150.898438 297.355469 150.867188 297.355469 C 145.222656 297.355469 140.222656 295.527344 135.589844 291.761719 L 132.671875 289.378906 C 132.652344 289.363281 132.566406 289.289062 132.542969 289.269531 C 128.957031 286.089844 125.824219 282.851562 122.503906 279.421875 C 121.007812 277.875 119.460938 276.277344 117.867188 274.683594 C 116.214844 273.027344 116.214844 270.347656 117.867188 268.691406 C 119.523438 267.035156 122.207031 267.035156 123.863281 268.691406 C 125.503906 270.332031 127.078125 271.957031 128.597656 273.527344 C 131.753906 276.789062 134.738281 279.867188 138.023438 282.792969 C 141.4375 285.296875 143.3125 283.4375 143.929688 282.816406 C 145.480469 281.265625 145.46875 278.761719 143.9375 276.90625 C 136.949219 270.945312 131.023438 263.914062 126.25 258.253906 C 124.597656 256.292969 123.171875 254.601562 121.910156 253.203125 C 119.046875 250.019531 114.886719 248.71875 107.570312 248.71875 C 107.542969 248.71875 107.519531 248.71875 107.492188 248.71875 L 83.347656 248.75 L 83.117188 275.566406 L 88.414062 275.566406 C 89.535156 275.566406 90.613281 276.015625 91.410156 276.808594 L 120.179688 305.578125 C 123.519531 308.921875 127.539062 310.5625 132.128906 310.417969 L 195.734375 308.617188 C 197.601562 308.5625 199.96875 305.992188 199.925781 303.332031 Z M 71.050781 240.414062 C 69.515625 239.804688 67.777344 240.554688 67.167969 242.089844 C 66.558594 243.625 67.308594 245.363281 68.84375 245.972656 C 70.375 246.582031 72.117188 245.832031 72.726562 244.296875 C 73.335938 242.761719 72.585938 241.023438 71.050781 240.414062 Z M 186.609375 143.289062 C 199.230469 143.289062 209.496094 153.554688 209.496094 166.175781 C 209.496094 173.039062 206.449219 179.207031 201.644531 183.40625 C 215.542969 188.839844 225.816406 201.617188 227.492188 217.28125 C 227.621094 218.476562 227.234375 219.671875 226.429688 220.566406 C 225.625 221.457031 224.480469 221.96875 223.277344 221.96875 L 149.941406 221.96875 C 148.742188 221.96875 147.59375 221.460938 146.789062 220.566406 C 145.988281 219.671875 145.601562 218.476562 145.730469 217.28125 C 147.40625 201.617188 157.675781 188.839844 171.574219 183.40625 C 166.769531 179.207031 163.726562 173.039062 163.726562 166.171875 C 163.726562 153.554688 173.992188 143.289062 186.609375 143.289062 Z M 186.609375 189.058594 C 171.5 189.058594 158.65625 199.277344 155.003906 213.492188 L 218.214844 213.492188 C 214.5625 199.277344 201.71875 189.058594 186.609375 189.058594 Z M 186.609375 151.765625 C 178.664062 151.765625 172.203125 158.230469 172.203125 166.175781 C 172.203125 174.117188 178.664062 180.582031 186.609375 180.582031 C 194.554688 180.582031 201.015625 174.117188 201.015625 166.175781 C 201.015625 158.230469 194.554688 151.765625 186.609375 151.765625 Z M 318.929688 107.859375 C 318.929688 136.402344 295.707031 159.625 267.164062 159.625 C 238.617188 159.625 215.398438 136.402344 215.398438 107.859375 C 215.398438 79.316406 238.617188 56.09375 267.164062 56.09375 C 295.707031 56.09375 318.929688 79.316406 318.929688 107.859375 Z M 310.453125 107.859375 C 310.453125 83.988281 291.03125 64.570312 267.164062 64.570312 C 243.292969 64.570312 223.875 83.988281 223.875 107.859375 C 223.875 131.730469 243.292969 151.148438 267.164062 151.148438 C 291.03125 151.148438 310.453125 131.730469 310.453125 107.859375 Z M 267.164062 80.570312 C 264.820312 80.570312 262.925781 82.46875 262.925781 84.808594 L 262.925781 103.621094 L 253.042969 103.621094 C 250.703125 103.621094 248.804688 105.519531 248.804688 107.859375 C 248.804688 110.199219 250.703125 112.097656 253.042969 112.097656 L 267.164062 112.097656 C 269.503906 112.097656 271.402344 110.199219 271.402344 107.859375 L 271.402344 84.808594 C 271.402344 82.46875 269.503906 80.570312 267.164062 80.570312 Z M 267.164062 65.78125 C 264.820312 65.78125 262.925781 67.679688 262.925781 70.019531 L 262.925781 74.121094 C 262.925781 76.460938 264.820312 78.359375 267.164062 78.359375 C 269.503906 78.359375 271.402344 76.460938 271.402344 74.121094 L 271.402344 70.019531 C 271.402344 67.679688 269.503906 65.78125 267.164062 65.78125 Z M 291.019531 88.242188 C 292.105469 88.242188 293.191406 87.828125 294.019531 87 L 296.917969 84.097656 C 298.574219 82.445312 298.574219 79.761719 296.917969 78.105469 C 295.261719 76.449219 292.578125 76.449219 290.925781 78.105469 L 288.023438 81.003906 C 286.367188 82.660156 286.367188 85.34375 288.023438 87 C 288.851562 87.828125 289.9375 88.242188 291.019531 88.242188 Z M 294.019531 128.71875 C 292.363281 127.066406 289.679688 127.066406 288.023438 128.71875 C 286.367188 130.375 286.367188 133.058594 288.023438 134.714844 L 290.925781 137.613281 C 291.75 138.441406 292.835938 138.855469 293.921875 138.855469 C 295.007812 138.855469 296.089844 138.441406 296.917969 137.613281 C 298.574219 135.960938 298.574219 133.277344 296.917969 131.621094 Z M 240.308594 128.71875 L 237.410156 131.621094 C 235.753906 133.277344 235.753906 135.960938 237.410156 137.613281 C 238.238281 138.441406 239.320312 138.855469 240.40625 138.855469 C 241.492188 138.855469 242.574219 138.441406 243.402344 137.613281 L 246.304688 134.714844 C 247.957031 133.058594 247.957031 130.375 246.304688 128.71875 C 244.648438 127.0625 241.964844 127.0625 240.308594 128.71875 Z M 243.402344 78.105469 C 241.746094 76.449219 239.0625 76.449219 237.410156 78.105469 C 235.753906 79.761719 235.753906 82.445312 237.410156 84.097656 L 240.308594 87 C 241.136719 87.828125 242.222656 88.242188 243.304688 88.242188 C 244.390625 88.242188 245.476562 87.828125 246.304688 87 C 247.957031 85.34375 247.957031 82.660156 246.304688 81.003906 Z M 305.003906 103.621094 L 300.902344 103.621094 C 298.5625 103.621094 296.664062 105.519531 296.664062 107.859375 C 296.664062 110.199219 298.5625 112.097656 300.902344 112.097656 L 305.003906 112.097656 C 307.34375 112.097656 309.242188 110.199219 309.242188 107.859375 C 309.242188 105.519531 307.34375 103.621094 305.003906 103.621094 Z M 267.164062 137.359375 C 264.820312 137.359375 262.925781 139.257812 262.925781 141.597656 L 262.925781 145.699219 C 262.925781 148.042969 264.820312 149.941406 267.164062 149.941406 C 269.503906 149.941406 271.402344 148.042969 271.402344 145.699219 L 271.402344 141.597656 C 271.402344 139.257812 269.503906 137.359375 267.164062 137.359375 Z M 237.664062 107.859375 C 237.664062 105.519531 235.765625 103.621094 233.421875 103.621094 L 229.320312 103.621094 C 226.980469 103.621094 225.082031 105.519531 225.082031 107.859375 C 225.082031 110.199219 226.980469 112.097656 229.320312 112.097656 L 233.421875 112.097656 C 235.765625 112.097656 237.664062 110.199219 237.664062 107.859375 Z M 237.664062 107.859375 " fill-opacity="1" fill-rule="nonzero"/></g></svg>