<svg xmlns="http://www.w3.org/2000/svg" xmlns:xlink="http://www.w3.org/1999/xlink" width="500" zoomAndPan="magnify" viewBox="0 0 375 374.999991" height="500" preserveAspectRatio="xMidYMid meet" version="1.0"><defs><clipPath id="aa19c923f7"><path d="M 187.5 0 C 83.945312 0 0 83.945312 0 187.5 C 0 291.054688 83.945312 375 187.5 375 C 291.054688 375 375 291.054688 375 187.5 C 375 83.945312 291.054688 0 187.5 0 Z M 187.5 0 " clip-rule="nonzero"/></clipPath><clipPath id="3d6c120303"><path d="M 143 282 L 222 282 L 222 324.808594 L 143 324.808594 Z M 143 282 " clip-rule="nonzero"/></clipPath><clipPath id="abcb03a23f"><path d="M 267 129 L 340.964844 129 L 340.964844 259 L 267 259 Z M 267 129 " clip-rule="nonzero"/></clipPath><clipPath id="df83ee1dce"><path d="M 34.214844 129 L 108 129 L 108 259 L 34.214844 259 Z M 34.214844 129 " clip-rule="nonzero"/></clipPath><clipPath id="a49cd0acb9"><path d="M 137 50.308594 L 238 50.308594 L 238 155 L 137 155 Z M 137 50.308594 " clip-rule="nonzero"/></clipPath></defs><g clip-path="url(#aa19c923f7)"><path stroke-linecap="butt" transform="matrix(0.75, 0, 0, 0.75, 0.0000045, 0)" fill="none" stroke-linejoin="miter" d="M 249.999994 0 C 111.927078 0 -0.000006 111.927084 -0.000006 250 C -0.000006 388.072917 111.927078 500.000001 249.999994 500.000001 C 388.072911 500.000001 499.999995 388.072917 499.999995 250 C 499.999995 111.927084 388.072911 0 249.999994 0 Z M 249.999994 0 " stroke="#c5a253" stroke-width="20" stroke-opacity="1" stroke-miterlimit="4"/></g><path fill="#c5a253" d="M 263.042969 260.597656 C 260.921875 260.597656 259.160156 258.917969 259.085938 256.777344 C 259 254.585938 260.714844 252.746094 262.898438 252.671875 C 263.066406 252.664062 279.835938 251.929688 294.082031 243.3125 C 295.957031 242.175781 298.394531 242.78125 299.53125 244.65625 C 300.667969 246.527344 300.0625 248.96875 298.1875 250.101562 C 282.128906 259.8125 263.953125 260.570312 263.1875 260.597656 C 263.140625 260.597656 263.09375 260.597656 263.042969 260.597656 Z M 263.042969 260.597656 " fill-opacity="1" fill-rule="nonzero"/><path fill="#c5a253" d="M 90.503906 256.164062 C 89.488281 256.164062 88.46875 255.777344 87.699219 255 L 77.761719 245.0625 C 76.210938 243.511719 76.210938 241 77.761719 239.449219 C 79.3125 237.898438 81.824219 237.898438 83.375 239.449219 L 93.3125 249.386719 C 94.863281 250.9375 94.863281 253.449219 93.3125 255 C 92.535156 255.777344 91.515625 256.164062 90.503906 256.164062 Z M 90.503906 256.164062 " fill-opacity="1" fill-rule="nonzero"/><g clip-path="url(#3d6c120303)"><path fill="#c5a253" d="M 165.5625 324.722656 C 160.535156 324.722656 155.507812 322.808594 151.675781 318.980469 L 145.15625 312.457031 C 143.605469 310.90625 143.605469 308.394531 145.15625 306.84375 C 146.707031 305.292969 149.21875 305.292969 150.769531 306.84375 L 157.289062 313.367188 C 161.847656 317.933594 169.273438 317.925781 173.839844 313.367188 C 176.050781 311.160156 177.269531 308.226562 177.269531 305.09375 C 177.269531 303.574219 176.980469 302.09375 176.410156 300.6875 C 175.828125 299.242188 174.960938 297.9375 173.839844 296.816406 C 172.289062 295.265625 172.289062 292.753906 173.839844 291.203125 C 175.390625 289.65625 177.902344 289.65625 179.453125 291.203125 L 193.976562 305.722656 C 196.1875 307.933594 199.128906 309.152344 202.246094 309.152344 C 205.367188 309.152344 208.308594 307.933594 210.519531 305.722656 C 212.730469 303.511719 213.949219 300.570312 213.949219 297.445312 C 213.949219 294.316406 212.730469 291.375 210.527344 289.171875 C 208.976562 287.621094 208.976562 285.109375 210.527344 283.558594 C 212.074219 282.011719 214.589844 282.011719 216.136719 283.558594 C 219.84375 287.265625 221.882812 292.195312 221.882812 297.445312 C 221.882812 302.691406 219.835938 307.621094 216.132812 311.335938 C 212.417969 315.039062 207.496094 317.085938 202.246094 317.085938 C 197 317.085938 192.074219 315.039062 188.363281 311.335938 L 184.996094 307.964844 C 184.390625 312.132812 182.476562 315.96875 179.445312 318.984375 C 175.617188 322.816406 170.589844 324.722656 165.5625 324.722656 Z M 165.5625 324.722656 " fill-opacity="1" fill-rule="nonzero"/></g><path fill="#c5a253" d="M 230.78125 301.292969 C 225.753906 301.292969 220.726562 299.378906 216.894531 295.550781 L 181.222656 259.875 C 179.671875 258.328125 179.671875 255.8125 181.222656 254.261719 C 182.773438 252.714844 185.285156 252.714844 186.835938 254.261719 L 222.507812 289.9375 C 227.066406 294.503906 234.492188 294.503906 239.058594 289.9375 C 243.625 285.378906 243.625 277.953125 239.058594 273.386719 L 203.382812 237.714844 C 201.835938 236.164062 201.835938 233.652344 203.382812 232.101562 C 204.933594 230.550781 207.445312 230.550781 208.996094 232.101562 L 244.671875 267.773438 C 252.328125 275.433594 252.328125 287.890625 244.671875 295.542969 C 240.835938 299.378906 235.808594 301.292969 230.78125 301.292969 Z M 230.78125 301.292969 " fill-opacity="1" fill-rule="nonzero"/><path fill="#c5a253" d="M 247.582031 273.789062 C 242.554688 273.789062 237.527344 271.871094 233.707031 268.050781 C 232.15625 266.5 232.15625 263.988281 233.707031 262.4375 C 235.257812 260.886719 237.769531 260.886719 239.320312 262.4375 C 243.886719 266.996094 251.300781 266.996094 255.863281 262.4375 C 257.609375 260.679688 258.746094 258.457031 259.132812 256.019531 C 259.140625 255.992188 259.140625 255.972656 259.148438 255.945312 C 259.242188 255.398438 259.292969 254.800781 259.292969 254.160156 C 259.292969 251.039062 258.070312 248.097656 255.863281 245.882812 L 199.21875 189.238281 C 195.132812 185.148438 189.140625 183.582031 183.578125 185.148438 C 180.71875 185.953125 178.152344 187.53125 176.152344 189.707031 L 158.496094 208.878906 C 158.460938 208.921875 158.417969 208.953125 158.386719 208.996094 C 154.335938 213.046875 148.949219 215.277344 143.226562 215.277344 C 137.503906 215.277344 132.113281 213.046875 128.0625 208.996094 C 121.347656 202.28125 119.824219 192.144531 124.28125 183.785156 C 129.957031 173.117188 139.769531 158.472656 154.316406 149.316406 C 154.371094 149.28125 154.417969 149.253906 154.472656 149.21875 C 166.4375 141.730469 179.542969 139.210938 193.425781 141.730469 C 195.53125 142.042969 224.3125 146.464844 246.921875 161.9375 L 270.089844 151.917969 C 272.101562 151.050781 274.433594 151.972656 275.304688 153.984375 C 276.171875 155.996094 275.246094 158.328125 273.238281 159.199219 L 248.03125 170.097656 C 246.75 170.65625 245.261719 170.492188 244.132812 169.671875 C 222.496094 154.023438 192.53125 149.617188 192.226562 149.578125 C 192.171875 149.570312 192.125 149.5625 192.074219 149.550781 C 180.121094 147.367188 168.847656 149.542969 158.558594 156.023438 C 158.507812 156.050781 158.460938 156.085938 158.414062 156.113281 C 145.417969 164.355469 136.5 177.730469 131.292969 187.507812 C 128.488281 192.777344 129.445312 199.15625 133.675781 203.382812 C 136.222656 205.929688 139.617188 207.335938 143.226562 207.335938 C 146.808594 207.335938 150.183594 205.953125 152.722656 203.429688 L 170.320312 184.328125 C 173.308594 181.070312 177.152344 178.714844 181.429688 177.507812 C 189.753906 175.160156 198.722656 177.507812 204.832031 183.625 L 261.472656 240.269531 C 265.1875 243.988281 267.226562 248.917969 267.226562 254.160156 C 267.226562 255.246094 267.136719 256.300781 266.964844 257.292969 C 266.308594 261.378906 264.414062 265.097656 261.472656 268.042969 C 257.644531 271.871094 252.609375 273.789062 247.582031 273.789062 Z M 247.582031 273.789062 " fill-opacity="1" fill-rule="nonzero"/><path fill="#c5a253" d="M 103.1875 161.484375 C 101.375 161.484375 99.742188 160.238281 99.324219 158.398438 C 98.835938 156.261719 100.171875 154.136719 102.3125 153.648438 C 127.175781 147.980469 155.222656 148.660156 156.527344 148.703125 C 158.675781 148.75 160.402344 150.507812 160.402344 152.667969 C 160.402344 154.894531 158.558594 156.703125 156.328125 156.636719 C 155.175781 156.609375 128.027344 155.925781 104.074219 161.386719 C 103.78125 161.449219 103.484375 161.484375 103.1875 161.484375 Z M 103.1875 161.484375 " fill-opacity="1" fill-rule="nonzero"/><path fill="#c5a253" d="M 99.394531 271.363281 C 95.761719 271.363281 92.132812 269.980469 89.371094 267.21875 C 86.695312 264.539062 85.21875 260.976562 85.21875 257.195312 C 85.21875 253.414062 86.695312 249.847656 89.371094 247.175781 L 101.445312 235.105469 C 104.125 232.425781 107.679688 230.953125 111.464844 230.953125 C 115.253906 230.953125 118.8125 232.425781 121.484375 235.105469 C 127.007812 240.628906 127.007812 249.621094 121.484375 255.144531 C 119.9375 256.695312 117.421875 256.695312 115.875 255.144531 C 114.324219 253.59375 114.324219 251.082031 115.875 249.53125 C 118.304688 247.101562 118.304688 243.140625 115.875 240.710938 C 114.695312 239.53125 113.125 238.886719 111.457031 238.886719 C 109.792969 238.886719 108.230469 239.53125 107.042969 240.710938 L 94.972656 252.78125 C 93.792969 253.960938 93.148438 255.523438 93.148438 257.191406 C 93.148438 258.855469 93.792969 260.425781 94.972656 261.605469 C 97.402344 264.035156 101.363281 264.035156 103.792969 261.605469 C 105.34375 260.054688 107.855469 260.054688 109.40625 261.605469 C 110.957031 263.152344 110.957031 265.667969 109.40625 267.21875 C 106.652344 269.980469 103.023438 271.363281 99.394531 271.363281 Z M 99.394531 271.363281 " fill-opacity="1" fill-rule="nonzero"/><path fill="#c5a253" d="M 109.53125 290.089844 C 105.902344 290.089844 102.273438 288.703125 99.511719 285.941406 C 96.832031 283.261719 95.355469 279.710938 95.355469 275.921875 C 95.355469 272.132812 96.832031 268.574219 99.511719 265.902344 L 115.878906 249.53125 C 118.558594 246.851562 122.113281 245.378906 125.898438 245.378906 C 129.6875 245.378906 133.25 246.851562 135.921875 249.53125 C 141.445312 255.054688 141.445312 264.050781 135.921875 269.574219 C 134.371094 271.121094 131.855469 271.121094 130.308594 269.574219 C 128.757812 268.023438 128.757812 265.507812 130.308594 263.960938 C 132.738281 261.527344 132.738281 257.570312 130.308594 255.136719 C 129.128906 253.960938 127.558594 253.3125 125.894531 253.3125 C 124.226562 253.3125 122.664062 253.960938 121.480469 255.136719 L 105.109375 271.507812 C 103.929688 272.683594 103.285156 274.253906 103.285156 275.921875 C 103.285156 277.589844 103.929688 279.152344 105.109375 280.335938 C 107.539062 282.769531 111.5 282.769531 113.929688 280.335938 C 115.480469 278.785156 117.996094 278.785156 119.542969 280.335938 C 121.09375 281.886719 121.09375 284.398438 119.542969 285.949219 C 116.789062 288.710938 113.152344 290.089844 109.53125 290.089844 Z M 109.53125 290.089844 " fill-opacity="1" fill-rule="nonzero"/><path fill="#c5a253" d="M 119.199219 309.273438 C 115.570312 309.273438 111.941406 307.890625 109.179688 305.128906 C 103.65625 299.605469 103.65625 290.613281 109.179688 285.089844 L 130.308594 263.964844 C 135.832031 258.441406 144.824219 258.441406 150.347656 263.964844 C 153.027344 266.644531 154.5 270.199219 154.5 273.988281 C 154.5 277.773438 153.027344 281.335938 150.347656 284.007812 L 129.226562 305.128906 C 126.457031 307.890625 122.828125 309.273438 119.199219 309.273438 Z M 140.328125 267.746094 C 138.730469 267.746094 137.132812 268.351562 135.914062 269.574219 L 114.785156 290.695312 C 112.355469 293.125 112.355469 297.085938 114.785156 299.515625 C 117.214844 301.949219 121.175781 301.949219 123.605469 299.515625 L 144.730469 278.394531 C 145.90625 277.21875 146.554688 275.648438 146.554688 273.980469 C 146.554688 272.3125 145.90625 270.742188 144.730469 269.566406 C 143.523438 268.351562 141.925781 267.746094 140.328125 267.746094 Z M 140.328125 267.746094 " fill-opacity="1" fill-rule="nonzero"/><path fill="#c5a253" d="M 139.769531 317.582031 C 136.140625 317.582031 132.511719 316.195312 129.75 313.433594 C 124.21875 307.90625 124.21875 298.910156 129.75 293.386719 C 131.300781 291.835938 133.8125 291.835938 135.363281 293.386719 C 136.914062 294.9375 136.914062 297.449219 135.363281 299 C 132.933594 301.429688 132.933594 305.390625 135.371094 307.828125 C 137.800781 310.261719 141.761719 310.261719 144.191406 307.828125 L 159.183594 292.835938 C 160.363281 291.660156 161.007812 290.089844 161.007812 288.421875 C 161.007812 286.753906 160.363281 285.191406 159.183594 284.015625 C 158.007812 282.835938 156.4375 282.183594 154.769531 282.183594 C 154.769531 282.183594 154.769531 282.183594 154.761719 282.183594 C 153.097656 282.183594 151.53125 282.828125 150.363281 284.007812 C 148.8125 285.558594 146.300781 285.558594 144.75 284.007812 C 143.199219 282.457031 143.199219 279.945312 144.75 278.394531 C 147.421875 275.722656 150.980469 274.25 154.761719 274.25 C 154.769531 274.25 154.769531 274.25 154.777344 274.25 C 158.566406 274.25 162.117188 275.730469 164.796875 278.402344 C 167.476562 281.082031 168.949219 284.632812 168.949219 288.421875 C 168.949219 292.210938 167.476562 295.769531 164.796875 298.441406 L 149.804688 313.433594 C 147.027344 316.195312 143.398438 317.582031 139.769531 317.582031 Z M 139.769531 317.582031 " fill-opacity="1" fill-rule="nonzero"/><g clip-path="url(#abcb03a23f)"><path fill="#c5a253" d="M 310.246094 258.820312 C 301.300781 258.820312 293.089844 252.84375 290.667969 243.800781 L 268.375 160.601562 C 266.976562 155.390625 267.699219 149.933594 270.414062 145.238281 C 273.125 140.539062 277.492188 137.179688 282.699219 135.789062 L 304.460938 129.957031 C 306.574219 129.390625 308.753906 130.644531 309.316406 132.757812 L 340.046875 247.445312 C 340.609375 249.558594 339.355469 251.734375 337.242188 252.300781 L 315.480469 258.132812 C 313.738281 258.601562 311.980469 258.820312 310.246094 258.820312 Z M 284.757812 143.445312 C 281.597656 144.292969 278.9375 146.339844 277.285156 149.203125 C 275.632812 152.070312 275.191406 155.390625 276.039062 158.550781 L 298.332031 241.75 C 300.09375 248.320312 306.871094 252.230469 313.433594 250.46875 L 331.363281 245.660156 L 302.683594 138.640625 Z M 283.734375 139.617188 Z M 283.734375 139.617188 " fill-opacity="1" fill-rule="nonzero"/></g><g clip-path="url(#df83ee1dce)"><path fill="#c5a253" d="M 64.691406 258.789062 C 62.960938 258.789062 61.199219 258.566406 59.449219 258.09375 L 37.6875 252.257812 C 35.574219 251.695312 34.3125 249.519531 34.882812 247.402344 L 65.613281 132.71875 C 65.886719 131.699219 66.550781 130.835938 67.457031 130.308594 C 68.367188 129.785156 69.457031 129.640625 70.46875 129.90625 L 92.230469 135.742188 C 103.023438 138.632812 109.453125 149.769531 106.5625 160.5625 L 84.269531 243.761719 C 81.84375 252.804688 73.636719 258.789062 64.691406 258.789062 Z M 61.5 250.425781 C 68.066406 252.183594 74.839844 248.273438 76.605469 241.707031 L 98.898438 158.507812 C 100.660156 151.9375 96.75 145.167969 90.179688 143.40625 L 72.246094 138.597656 L 43.566406 245.621094 Z M 61.5 250.425781 " fill-opacity="1" fill-rule="nonzero"/></g><g clip-path="url(#a49cd0acb9)"><path fill="#c5a253" d="M 211.882812 154.101562 C 210.90625 154.101562 209.925781 153.742188 209.160156 153.019531 C 207.5625 151.519531 207.496094 149.003906 208.996094 147.414062 C 222.035156 133.585938 229.214844 116.058594 229.214844 98.042969 C 229.214844 90.761719 228.074219 83.578125 225.820312 76.660156 C 210.835938 77.320312 196.519531 71.257812 187.476562 60.839844 C 178.433594 71.257812 164.144531 77.328125 149.128906 76.660156 C 146.871094 83.578125 145.726562 90.761719 145.726562 98.042969 C 145.726562 115.726562 152.675781 133.019531 165.300781 146.71875 C 166.78125 148.328125 166.683594 150.835938 165.074219 152.324219 C 163.460938 153.8125 160.953125 153.703125 159.464844 152.097656 C 145.492188 136.925781 137.792969 117.726562 137.792969 98.042969 C 137.792969 88.828125 139.433594 79.765625 142.667969 71.09375 C 143.304688 69.398438 145.003906 68.351562 146.800781 68.539062 C 148.316406 68.699219 149.851562 68.78125 151.367188 68.78125 C 164.859375 68.78125 177.421875 62.394531 184.15625 52.113281 C 184.886719 50.992188 186.140625 50.324219 187.476562 50.324219 C 188.8125 50.324219 190.058594 51 190.792969 52.113281 C 197.523438 62.394531 210.085938 68.78125 223.582031 68.78125 C 225.097656 68.78125 226.632812 68.699219 228.148438 68.539062 C 229.945312 68.351562 231.648438 69.398438 232.28125 71.09375 C 235.519531 79.757812 237.15625 88.828125 237.15625 98.042969 C 237.15625 118.082031 229.210938 137.550781 214.78125 152.855469 C 213.988281 153.679688 212.9375 154.101562 211.882812 154.101562 Z M 211.882812 154.101562 " fill-opacity="1" fill-rule="nonzero"/></g><path fill="#c5a253" d="M 178.246094 131.574219 C 177.195312 131.574219 176.1875 131.152344 175.445312 130.410156 L 161.3125 116.277344 C 159.761719 114.730469 159.761719 112.214844 161.3125 110.664062 C 162.863281 109.117188 165.375 109.117188 166.925781 110.664062 L 178.246094 121.988281 L 208.011719 92.222656 C 209.5625 90.671875 212.074219 90.671875 213.625 92.222656 C 215.175781 93.773438 215.175781 96.285156 213.625 97.835938 L 181.058594 130.402344 C 180.304688 131.152344 179.300781 131.574219 178.246094 131.574219 Z M 178.246094 131.574219 " fill-opacity="1" fill-rule="nonzero"/></svg>