<svg width="21" height="23" viewBox="0 0 21 23" fill="none" xmlns="http://www.w3.org/2000/svg">
<g clip-path="url(#clip0_2018_218)">
<path d="M18.9909 15.5571V18.3154C18.9919 18.5715 18.9427 18.8249 18.8463 19.0596C18.75 19.2942 18.6088 19.5048 18.4316 19.6779C18.2545 19.851 18.0453 19.9828 17.8176 20.0648C17.5899 20.1469 17.3485 20.1773 17.1091 20.1543C14.4529 19.8469 11.9014 18.8801 9.65959 17.3316C7.57392 15.9199 5.80563 14.0365 4.48031 11.8149C3.02146 9.41629 2.11359 6.68534 1.83025 3.84335C1.80868 3.58909 1.83705 3.33283 1.91355 3.09089C1.99005 2.84896 2.11301 2.62663 2.2746 2.43809C2.43619 2.24954 2.63287 2.09889 2.85211 1.99574C3.07136 1.89259 3.30836 1.8392 3.54804 1.83896H6.13768C6.5566 1.83456 6.96273 1.99258 7.28037 2.28354C7.59801 2.5745 7.80547 2.97856 7.86411 3.4204C7.97341 4.30313 8.17611 5.16985 8.46836 6.00404C8.5845 6.33313 8.60963 6.69079 8.54079 7.03463C8.47194 7.37847 8.312 7.69408 8.07991 7.94407L6.98363 9.11176C8.21246 11.4136 10.0018 13.3195 12.1629 14.6284L13.2592 13.4607C13.4939 13.2135 13.7902 13.0432 14.113 12.9698C14.4358 12.8965 14.7716 12.9233 15.0806 13.047C15.8637 13.3583 16.6775 13.5742 17.5062 13.6906C17.9255 13.7536 18.3085 13.9786 18.5822 14.3227C18.856 14.6668 19.0014 15.1062 18.9909 15.5571Z" stroke="white" stroke-width="2" stroke-linecap="round" stroke-linejoin="round"/>
</g>
<defs>
<clipPath id="clip0_2018_218">
<rect width="20.7171" height="22.0667" fill="white"/>
</clipPath>
</defs>
</svg>
